<svg width="79" height="79" viewBox="0 0 79 79" fill="none" xmlns="http://www.w3.org/2000/svg">
<path d="M54.3125 29.625C54.3125 37.8057 47.6807 44.4375 39.5 44.4375C31.3193 44.4375 24.6875 37.8057 24.6875 29.625C24.6875 21.4443 31.3193 14.8125 39.5 14.8125C47.6807 14.8125 54.3125 21.4443 54.3125 29.625Z" fill="#4F4F4F"/>
<path fill-rule="evenodd" clip-rule="evenodd" d="M0 39.5C0 17.6848 17.6848 0 39.5 0C61.3152 0 79 17.6848 79 39.5C79 61.3152 61.3152 79 39.5 79C17.6848 79 0 61.3152 0 39.5ZM39.5 4.9375C20.4117 4.9375 4.9375 20.4117 4.9375 39.5C4.9375 47.6638 7.76795 55.1665 12.5011 61.0803C16.012 55.4246 23.7229 49.375 39.5 49.375C55.2772 49.375 62.9881 55.4247 66.499 61.0803C71.2321 55.1665 74.0625 47.6638 74.0625 39.5C74.0625 20.4117 58.5883 4.9375 39.5 4.9375Z" fill="#4F4F4F"/>
</svg>
